<svg version="1.1"
	 xmlns="http://www.w3.org/2000/svg" xmlns:xlink="http://www.w3.org/1999/xlink" xmlns:a="http://ns.adobe.com/AdobeSVGViewerExtensions/3.0/"
	 x="0px" y="0px" width="329px" height="160px" viewBox="0 0 329 160" style="enable-background:new 0 0 329 160;"
	 xml:space="preserve">
<style type="text/css">
	.st0{stroke:#000000;stroke-miterlimit:10;}
</style>
<defs>
</defs>
<path class="st0" d="M0.5,80c0-50.7,39-79.5,83.5-79.5c25.2,0,49,11.3,64.9,29.2c0,0-27,24.6-27,24.6C114.6,44.1,102.4,36,84,36
	c-27.7,0-40.5,21.3-40.5,44v0c0,22.6,12.8,44,40.5,44c18.4,0,30.6-8.1,37.9-18.3c0,0,27,24.6,27,24.6
	c-15.9,17.9-39.7,29.2-64.9,29.2C39.5,159.5,0.5,130.7,0.5,80 M308.1,80c12.2-7.3,20.4-20.7,20.4-36c0-25.4-23.6-40.4-58.5-40.4
	l-86.5,0l0,31.6l86.5,0c8.6,0,15.5,6.9,15.5,15.5c0,8.6-6.9,14.5-15.5,14.5c0,0-86.5,0-86.5,0l0,14.8v14.7H270
	c8.6,0,15.5,5.9,15.5,14.5s-6.9,15.5-15.5,15.5h-86.5v31.6H270c34.9,0,58.5-15,58.5-40.4C328.5,100.7,320.3,87.3,308.1,80"/>
</svg>
